<?xml version="1.0" standalone="no"?>
<!DOCTYPE svg PUBLIC "-//W3C//DTD SVG 20010904//EN"
 "http://www.w3.org/TR/2001/REC-SVG-20010904/DTD/svg10.dtd">
<svg version="1.0" xmlns="http://www.w3.org/2000/svg"
 width="640.000000pt" height="640.000000pt" viewBox="0 0 640.000000 640.000000"
 preserveAspectRatio="xMidYMid meet">
<metadata>
Created by potrace 1.11, written by Peter Selinger 2001-2013
</metadata>
<g transform="translate(0.000000,640.000000) scale(0.100000,-0.100000)"
fill="#000000" stroke="none">
<path d="M860 3189 l0 -1930 1023 4 c893 3 1035 6 1125 20 236 38 394 87 562
173 330 169 519 440 569 817 32 232 -7 419 -122 595 -150 230 -434 408 -726
454 -45 7 -81 15 -81 18 0 3 38 15 85 28 297 78 545 263 656 487 64 130 84
227 76 380 -11 211 -74 367 -204 505 -202 215 -527 332 -1028 369 -82 7 -509
11 -1037 11 l-898 0 0 -1931z m1623 1127 c145 -33 240 -94 284 -184 24 -50 28
-69 28 -147 0 -82 -3 -97 -33 -157 -36 -74 -88 -125 -166 -165 -81 -41 -162
-53 -378 -53 l-198 0 0 366 0 367 198 -6 c122 -3 223 -11 265 -21z m118 -1500
c116 -25 196 -75 253 -159 126 -186 64 -441 -131 -545 -115 -60 -143 -65 -435
-70 l-268 -4 0 396 0 396 258 0 c182 0 276 -4 323 -14z"/>
<path d="M5025 2261 c-308 -50 -506 -255 -505 -525 1 -195 125 -386 310 -473
118 -56 173 -68 325 -68 154 0 252 20 355 71 172 87 273 237 287 429 18 261
-137 468 -407 545 -83 24 -278 35 -365 21z"/>
</g>
</svg>
